# xmcd
#
# Track frame offsets:
#	150
#	13650
#	40325
#	55680
#	71977
#	92050
#	111277
#	124592
#	139177
#	150145
#	161000
#	178767
#	199322
#	217782
#	239452
#	266347
#	281402
#	294170
#
# Disc length: 4054 seconds
#
# Revision: 3108074091
# Processed by: cddbd v1.5.2PL0 Copyright (c) Steve Scherf et al.
# Submitted via: EZCDAudioConverter 8.2.2.1
#
DISCID=fd0fd412
DTITLE=Various Artist - Say It Loud! A Celebration Of Black Music In America 
DTITLE=[CD4]
DYEAR=2001
DGENRE=Soul-Jazz, Rock and Roll, Calypso, Bop, Country, Field Recording, Politic
DGENRE=al, Dixieland, Electric Blues, Country Blues, Chicago Blues, Big Band, 
DGENRE=Speech, Hip Hop, Doo Wop, Interview, Gospel, Classic Rock, Delta Blues,
DGENRE=Funk, Cool Jazz
TTITLE0=The Miracles - You've Really Got A Hold On Me
TTITLE1=Mahalia Jackson - Martin Luther King, Jr. - Take My Hand Precious Lord
TTITLE1=Martin Luther King, Jr.'s "I Have A Dream" Speech
TTITLE2=Odetta - Cotton Fields
TTITLE3=B.B. King - How Blue Can You Get?
TTITLE4=Jackie Wilson - John F. Kennedy - No Pity (In The Naked City) - Presid
TTITLE4=ent John F. Kennedy's Address To The Nation
TTITLE5=Otis Redding - Change Gonna Come
TTITLE6=Dionne Warwick - Walk On By
TTITLE7=Four Tops - Malcolm X - Reach Out I ll Be There - Malcolm X On "Our Co
TTITLE7=mmon Enemy"
TTITLE8=Wilson Pickett - Land Of 1000 Dances
TTITLE9=Aretha Franklin - Respect
TTITLE10=The Jimi Hendrix Experience - Hey Joe
TTITLE11=Richie Havens - The Klan
TTITLE12=Diana Ross and The Supremes - Martin Luther King, Jr. - Love Child - Ma
TTITLE12=rtin Luther King, Jr.'s "Mountain Top" Speech and The Report Of His Ass
TTITLE12=assination
TTITLE13=James Brown - Say It Loud I m Black And I m Proud
TTITLE14=Sly and the Family Stone - Dont Call Me Nigger, Whitey
TTITLE15=The Impressions - Choice Of Colors
TTITLE16=Nina Simone - To Be Young, Gifted And Black
TTITLE17=Charley Pride - Is Anybody Goin To San Antone
EXTD=
EXTT0=
EXTT1=
EXTT2=
EXTT3=
EXTT4=
EXTT5=
EXTT6=
EXTT7=
EXTT8=
EXTT9=
EXTT10=
EXTT11=
EXTT12=
EXTT13=
EXTT14=
EXTT15=
EXTT16=
EXTT17=
PLAYORDER=
